<?xml version="1.0" encoding="UTF-8" ?>
<svg version="1.1" width="48" height="48" xmlns="http://www.w3.org/2000/svg" shape-rendering="crispEdges">
<rect x="28" y="5" width="1" height="1" fill="#3B324A" />
<rect x="29" y="5" width="1" height="1" fill="#3B324A" />
<rect x="27" y="6" width="1" height="1" fill="#3B324A" />
<rect x="28" y="6" width="1" height="1" fill="#3B324A" />
<rect x="29" y="6" width="1" height="1" fill="#3B324A" />
<rect x="26" y="7" width="1" height="1" fill="#3B324A" />
<rect x="27" y="7" width="1" height="1" fill="#3B324A" />
<rect x="28" y="7" width="1" height="1" fill="#3B324A" />
<rect x="29" y="7" width="1" height="1" fill="#3B324A" />
<rect x="26" y="8" width="1" height="1" fill="#3B324A" />
<rect x="27" y="8" width="1" height="1" fill="#3B324A" />
<rect x="28" y="8" width="1" height="1" fill="#3B324A" />
<rect x="25" y="9" width="1" height="1" fill="#3B324A" />
<rect x="26" y="9" width="1" height="1" fill="#3B324A" />
<rect x="27" y="9" width="1" height="1" fill="#3B324A" />
<rect x="28" y="9" width="1" height="1" fill="#3B324A" />
<rect x="24" y="10" width="1" height="1" fill="#3B324A" />
<rect x="25" y="10" width="1" height="1" fill="#3B324A" />
<rect x="26" y="10" width="1" height="1" fill="#3B324A" />
<rect x="27" y="10" width="1" height="1" fill="#3B324A" />
<rect x="28" y="10" width="1" height="1" fill="#3B324A" />
<rect x="29" y="10" width="1" height="1" fill="#3B324A" />
<rect x="23" y="11" width="1" height="1" fill="#377172" />
<rect x="24" y="11" width="1" height="1" fill="#3B324A" />
<rect x="25" y="11" width="1" height="1" fill="#3B324A" />
<rect x="26" y="11" width="1" height="1" fill="#3B324A" />
<rect x="27" y="11" width="1" height="1" fill="#3B324A" />
<rect x="28" y="11" width="1" height="1" fill="#3B324A" />
<rect x="29" y="11" width="1" height="1" fill="#3B324A" />
<rect x="30" y="11" width="1" height="1" fill="#377172" />
<rect x="22" y="12" width="1" height="1" fill="#292333" />
<rect x="23" y="12" width="1" height="1" fill="#292333" />
<rect x="24" y="12" width="1" height="1" fill="#377172" />
<rect x="25" y="12" width="1" height="1" fill="#377172" />
<rect x="26" y="12" width="1" height="1" fill="#3B324A" />
<rect x="27" y="12" width="1" height="1" fill="#3B324A" />
<rect x="28" y="12" width="1" height="1" fill="#3B324A" />
<rect x="29" y="12" width="1" height="1" fill="#4FA4A5" />
<rect x="30" y="12" width="1" height="1" fill="#292333" />
<rect x="31" y="12" width="1" height="1" fill="#292333" />
<rect x="19" y="13" width="1" height="1" fill="#292333" />
<rect x="20" y="13" width="1" height="1" fill="#292333" />
<rect x="21" y="13" width="1" height="1" fill="#292333" />
<rect x="22" y="13" width="1" height="1" fill="#292333" />
<rect x="23" y="13" width="1" height="1" fill="#292333" />
<rect x="24" y="13" width="1" height="1" fill="#292333" />
<rect x="25" y="13" width="1" height="1" fill="#292333" />
<rect x="26" y="13" width="1" height="1" fill="#4FA4A5" />
<rect x="27" y="13" width="1" height="1" fill="#4FA4A5" />
<rect x="28" y="13" width="1" height="1" fill="#4FA4A5" />
<rect x="29" y="13" width="1" height="1" fill="#292333" />
<rect x="30" y="13" width="1" height="1" fill="#292333" />
<rect x="31" y="13" width="1" height="1" fill="#292333" />
<rect x="32" y="13" width="1" height="1" fill="#292333" />
<rect x="33" y="13" width="1" height="1" fill="#292333" />
<rect x="34" y="13" width="1" height="1" fill="#3B324A" />
<rect x="18" y="14" width="1" height="1" fill="#3B324A" />
<rect x="19" y="14" width="1" height="1" fill="#292333" />
<rect x="20" y="14" width="1" height="1" fill="#292333" />
<rect x="21" y="14" width="1" height="1" fill="#292333" />
<rect x="22" y="14" width="1" height="1" fill="#292333" />
<rect x="23" y="14" width="1" height="1" fill="#292333" />
<rect x="24" y="14" width="1" height="1" fill="#292333" />
<rect x="25" y="14" width="1" height="1" fill="#292333" />
<rect x="26" y="14" width="1" height="1" fill="#292333" />
<rect x="27" y="14" width="1" height="1" fill="#292333" />
<rect x="28" y="14" width="1" height="1" fill="#292333" />
<rect x="29" y="14" width="1" height="1" fill="#292333" />
<rect x="30" y="14" width="1" height="1" fill="#292333" />
<rect x="31" y="14" width="1" height="1" fill="#292333" />
<rect x="32" y="14" width="1" height="1" fill="#3B324A" />
<rect x="33" y="14" width="1" height="1" fill="#3B324A" />
<rect x="34" y="14" width="1" height="1" fill="#3B324A" />
<rect x="35" y="14" width="1" height="1" fill="#3B324A" />
<rect x="18" y="15" width="1" height="1" fill="#3B324A" />
<rect x="19" y="15" width="1" height="1" fill="#3B324A" />
<rect x="20" y="15" width="1" height="1" fill="#292333" />
<rect x="21" y="15" width="1" height="1" fill="#292333" />
<rect x="22" y="15" width="1" height="1" fill="#292333" />
<rect x="23" y="15" width="1" height="1" fill="#292333" />
<rect x="24" y="15" width="1" height="1" fill="#292333" />
<rect x="25" y="15" width="1" height="1" fill="#292333" />
<rect x="26" y="15" width="1" height="1" fill="#292333" />
<rect x="27" y="15" width="1" height="1" fill="#292333" />
<rect x="28" y="15" width="1" height="1" fill="#292333" />
<rect x="29" y="15" width="1" height="1" fill="#3B324A" />
<rect x="30" y="15" width="1" height="1" fill="#3B324A" />
<rect x="31" y="15" width="1" height="1" fill="#3B324A" />
<rect x="32" y="15" width="1" height="1" fill="#3B324A" />
<rect x="33" y="15" width="1" height="1" fill="#3B324A" />
<rect x="34" y="15" width="1" height="1" fill="#3B324A" />
<rect x="35" y="15" width="1" height="1" fill="#3B324A" />
<rect x="19" y="16" width="1" height="1" fill="#3B324A" />
<rect x="20" y="16" width="1" height="1" fill="#3B324A" />
<rect x="21" y="16" width="1" height="1" fill="#3B324A" />
<rect x="22" y="16" width="1" height="1" fill="#3B324A" />
<rect x="23" y="16" width="1" height="1" fill="#3B324A" />
<rect x="24" y="16" width="1" height="1" fill="#3B324A" />
<rect x="25" y="16" width="1" height="1" fill="#3B324A" />
<rect x="26" y="16" width="1" height="1" fill="#3B324A" />
<rect x="27" y="16" width="1" height="1" fill="#3B324A" />
<rect x="28" y="16" width="1" height="1" fill="#3B324A" />
<rect x="29" y="16" width="1" height="1" fill="#3B324A" />
<rect x="30" y="16" width="1" height="1" fill="#3B324A" />
<rect x="31" y="16" width="1" height="1" fill="#3B324A" />
<rect x="32" y="16" width="1" height="1" fill="#3B324A" />
<rect x="33" y="16" width="1" height="1" fill="#3B324A" />
<rect x="34" y="16" width="1" height="1" fill="#3B324A" />
<rect x="21" y="17" width="1" height="1" fill="#3B324A" />
<rect x="22" y="17" width="1" height="1" fill="#3B324A" />
<rect x="23" y="17" width="1" height="1" fill="#3B324A" />
<rect x="24" y="17" width="1" height="1" fill="#3B324A" />
<rect x="25" y="17" width="1" height="1" fill="#3B324A" />
<rect x="26" y="17" width="1" height="1" fill="#3B324A" />
<rect x="27" y="17" width="1" height="1" fill="#3B324A" />
<rect x="28" y="17" width="1" height="1" fill="#3B324A" />
<rect x="29" y="17" width="1" height="1" fill="#3B324A" />
<rect x="30" y="17" width="1" height="1" fill="#3B324A" />
<rect x="31" y="17" width="1" height="1" fill="#3B324A" />
<rect x="32" y="17" width="1" height="1" fill="#3B324A" />
<rect x="22" y="18" width="1" height="1" fill="#377172" />
<rect x="23" y="18" width="1" height="1" fill="#377172" />
<rect x="24" y="18" width="1" height="1" fill="#377172" />
<rect x="25" y="18" width="1" height="1" fill="#377172" />
<rect x="26" y="18" width="1" height="1" fill="#A2A29A" />
<rect x="27" y="18" width="1" height="1" fill="#292333" />
<rect x="28" y="18" width="1" height="1" fill="#9E907F" />
<rect x="29" y="18" width="1" height="1" fill="#A2A29A" />
<rect x="30" y="18" width="1" height="1" fill="#292333" />
<rect x="31" y="18" width="1" height="1" fill="#377172" />
<rect x="22" y="19" width="1" height="1" fill="#4FA4A5" />
<rect x="23" y="19" width="1" height="1" fill="#4FA4A5" />
<rect x="24" y="19" width="1" height="1" fill="#4FA4A5" />
<rect x="25" y="19" width="1" height="1" fill="#4FA4A5" />
<rect x="26" y="19" width="1" height="1" fill="#ECECE0" />
<rect x="27" y="19" width="1" height="1" fill="#3B324A" />
<rect x="28" y="19" width="1" height="1" fill="#E6D1B8" />
<rect x="29" y="19" width="1" height="1" fill="#ECECE0" />
<rect x="30" y="19" width="1" height="1" fill="#3B324A" />
<rect x="31" y="19" width="1" height="1" fill="#4FA4A5" />
<rect x="22" y="20" width="1" height="1" fill="#4FA4A5" />
<rect x="23" y="20" width="1" height="1" fill="#4FA4A5" />
<rect x="24" y="20" width="1" height="1" fill="#4FA4A5" />
<rect x="25" y="20" width="1" height="1" fill="#4FA4A5" />
<rect x="26" y="20" width="1" height="1" fill="#E6D1B8" />
<rect x="27" y="20" width="1" height="1" fill="#E6D1B8" />
<rect x="28" y="20" width="1" height="1" fill="#E6D1B8" />
<rect x="29" y="20" width="1" height="1" fill="#E6D1B8" />
<rect x="30" y="20" width="1" height="1" fill="#E6D1B8" />
<rect x="31" y="20" width="1" height="1" fill="#4FA4A5" />
<rect x="21" y="21" width="1" height="1" fill="#3B324A" />
<rect x="22" y="21" width="1" height="1" fill="#3B324A" />
<rect x="23" y="21" width="1" height="1" fill="#3B324A" />
<rect x="24" y="21" width="1" height="1" fill="#3B324A" />
<rect x="25" y="21" width="1" height="1" fill="#3B324A" />
<rect x="26" y="21" width="1" height="1" fill="#3B324A" />
<rect x="27" y="21" width="1" height="1" fill="#3B324A" />
<rect x="28" y="21" width="1" height="1" fill="#292333" />
<rect x="29" y="21" width="1" height="1" fill="#292333" />
<rect x="30" y="21" width="1" height="1" fill="#292333" />
<rect x="31" y="21" width="1" height="1" fill="#292333" />
<rect x="20" y="22" width="1" height="1" fill="#3B324A" />
<rect x="21" y="22" width="1" height="1" fill="#3B324A" />
<rect x="22" y="22" width="1" height="1" fill="#3B324A" />
<rect x="23" y="22" width="1" height="1" fill="#3B324A" />
<rect x="24" y="22" width="1" height="1" fill="#3B324A" />
<rect x="25" y="22" width="1" height="1" fill="#3B324A" />
<rect x="26" y="22" width="1" height="1" fill="#3B324A" />
<rect x="27" y="22" width="1" height="1" fill="#3B324A" />
<rect x="28" y="22" width="1" height="1" fill="#3B324A" />
<rect x="29" y="22" width="1" height="1" fill="#292333" />
<rect x="30" y="22" width="1" height="1" fill="#292333" />
<rect x="31" y="22" width="1" height="1" fill="#292333" />
<rect x="32" y="22" width="1" height="1" fill="#292333" />
<rect x="19" y="23" width="1" height="1" fill="#3B324A" />
<rect x="20" y="23" width="1" height="1" fill="#3B324A" />
<rect x="21" y="23" width="1" height="1" fill="#3B324A" />
<rect x="22" y="23" width="1" height="1" fill="#3B324A" />
<rect x="23" y="23" width="1" height="1" fill="#3B324A" />
<rect x="24" y="23" width="1" height="1" fill="#3B324A" />
<rect x="25" y="23" width="1" height="1" fill="#3B324A" />
<rect x="26" y="23" width="1" height="1" fill="#3B324A" />
<rect x="27" y="23" width="1" height="1" fill="#3B324A" />
<rect x="28" y="23" width="1" height="1" fill="#3B324A" />
<rect x="29" y="23" width="1" height="1" fill="#292333" />
<rect x="30" y="23" width="1" height="1" fill="#292333" />
<rect x="31" y="23" width="1" height="1" fill="#292333" />
<rect x="32" y="23" width="1" height="1" fill="#292333" />
<rect x="33" y="23" width="1" height="1" fill="#292333" />
<rect x="19" y="24" width="1" height="1" fill="#3B324A" />
<rect x="20" y="24" width="1" height="1" fill="#3B324A" />
<rect x="21" y="24" width="1" height="1" fill="#3B324A" />
<rect x="22" y="24" width="1" height="1" fill="#3B324A" />
<rect x="23" y="24" width="1" height="1" fill="#3B324A" />
<rect x="24" y="24" width="1" height="1" fill="#3B324A" />
<rect x="25" y="24" width="1" height="1" fill="#3B324A" />
<rect x="26" y="24" width="1" height="1" fill="#3B324A" />
<rect x="27" y="24" width="1" height="1" fill="#3B324A" />
<rect x="28" y="24" width="1" height="1" fill="#3B324A" />
<rect x="29" y="24" width="1" height="1" fill="#292333" />
<rect x="30" y="24" width="1" height="1" fill="#292333" />
<rect x="31" y="24" width="1" height="1" fill="#292333" />
<rect x="32" y="24" width="1" height="1" fill="#292333" />
<rect x="33" y="24" width="1" height="1" fill="#292333" />
<rect x="18" y="25" width="1" height="1" fill="#3B324A" />
<rect x="19" y="25" width="1" height="1" fill="#3B324A" />
<rect x="20" y="25" width="1" height="1" fill="#3B324A" />
<rect x="21" y="25" width="1" height="1" fill="#3B324A" />
<rect x="22" y="25" width="1" height="1" fill="#3B324A" />
<rect x="23" y="25" width="1" height="1" fill="#3B324A" />
<rect x="24" y="25" width="1" height="1" fill="#3B324A" />
<rect x="25" y="25" width="1" height="1" fill="#3B324A" />
<rect x="26" y="25" width="1" height="1" fill="#3B324A" />
<rect x="27" y="25" width="1" height="1" fill="#3B324A" />
<rect x="28" y="25" width="1" height="1" fill="#3B324A" />
<rect x="29" y="25" width="1" height="1" fill="#292333" />
<rect x="30" y="25" width="1" height="1" fill="#292333" />
<rect x="31" y="25" width="1" height="1" fill="#292333" />
<rect x="32" y="25" width="1" height="1" fill="#292333" />
<rect x="33" y="25" width="1" height="1" fill="#292333" />
<rect x="34" y="25" width="1" height="1" fill="#292333" />
<rect x="18" y="26" width="1" height="1" fill="#3B324A" />
<rect x="19" y="26" width="1" height="1" fill="#3B324A" />
<rect x="20" y="26" width="1" height="1" fill="#3B324A" />
<rect x="21" y="26" width="1" height="1" fill="#3B324A" />
<rect x="22" y="26" width="1" height="1" fill="#3B324A" />
<rect x="23" y="26" width="1" height="1" fill="#3B324A" />
<rect x="24" y="26" width="1" height="1" fill="#3B324A" />
<rect x="25" y="26" width="1" height="1" fill="#3B324A" />
<rect x="26" y="26" width="1" height="1" fill="#3B324A" />
<rect x="27" y="26" width="1" height="1" fill="#3B324A" />
<rect x="28" y="26" width="1" height="1" fill="#3B324A" />
<rect x="29" y="26" width="1" height="1" fill="#292333" />
<rect x="30" y="26" width="1" height="1" fill="#292333" />
<rect x="31" y="26" width="1" height="1" fill="#292333" />
<rect x="32" y="26" width="1" height="1" fill="#292333" />
<rect x="33" y="26" width="1" height="1" fill="#292333" />
<rect x="34" y="26" width="1" height="1" fill="#292333" />
<rect x="17" y="27" width="1" height="1" fill="#3B324A" />
<rect x="18" y="27" width="1" height="1" fill="#3B324A" />
<rect x="19" y="27" width="1" height="1" fill="#3B324A" />
<rect x="20" y="27" width="1" height="1" fill="#3B324A" />
<rect x="21" y="27" width="1" height="1" fill="#3B324A" />
<rect x="22" y="27" width="1" height="1" fill="#3B324A" />
<rect x="23" y="27" width="1" height="1" fill="#3B324A" />
<rect x="24" y="27" width="1" height="1" fill="#3B324A" />
<rect x="25" y="27" width="1" height="1" fill="#3B324A" />
<rect x="26" y="27" width="1" height="1" fill="#3B324A" />
<rect x="27" y="27" width="1" height="1" fill="#3B324A" />
<rect x="28" y="27" width="1" height="1" fill="#3B324A" />
<rect x="29" y="27" width="1" height="1" fill="#292333" />
<rect x="30" y="27" width="1" height="1" fill="#292333" />
<rect x="31" y="27" width="1" height="1" fill="#292333" />
<rect x="32" y="27" width="1" height="1" fill="#292333" />
<rect x="33" y="27" width="1" height="1" fill="#292333" />
<rect x="34" y="27" width="1" height="1" fill="#292333" />
<rect x="46" y="27" width="1" height="1" fill="#BFBFB6" />
<rect x="47" y="27" width="1" height="1" fill="#BFBFB6" />
<rect x="17" y="28" width="1" height="1" fill="#3B324A" />
<rect x="18" y="28" width="1" height="1" fill="#3B324A" />
<rect x="19" y="28" width="1" height="1" fill="#3B324A" />
<rect x="20" y="28" width="1" height="1" fill="#3B324A" />
<rect x="21" y="28" width="1" height="1" fill="#3B324A" />
<rect x="22" y="28" width="1" height="1" fill="#3B324A" />
<rect x="23" y="28" width="1" height="1" fill="#3B324A" />
<rect x="24" y="28" width="1" height="1" fill="#3B324A" />
<rect x="25" y="28" width="1" height="1" fill="#3B324A" />
<rect x="26" y="28" width="1" height="1" fill="#3B324A" />
<rect x="27" y="28" width="1" height="1" fill="#3B324A" />
<rect x="28" y="28" width="1" height="1" fill="#3B324A" />
<rect x="29" y="28" width="1" height="1" fill="#292333" />
<rect x="30" y="28" width="1" height="1" fill="#292333" />
<rect x="31" y="28" width="1" height="1" fill="#292333" />
<rect x="32" y="28" width="1" height="1" fill="#292333" />
<rect x="33" y="28" width="1" height="1" fill="#292333" />
<rect x="34" y="28" width="1" height="1" fill="#292333" />
<rect x="45" y="28" width="1" height="1" fill="#BFBFB6" />
<rect x="47" y="28" width="1" height="1" fill="#4FA4A5" />
<rect x="17" y="29" width="1" height="1" fill="#3B324A" />
<rect x="18" y="29" width="1" height="1" fill="#3B324A" />
<rect x="19" y="29" width="1" height="1" fill="#3B324A" />
<rect x="20" y="29" width="1" height="1" fill="#3B324A" />
<rect x="21" y="29" width="1" height="1" fill="#3B324A" />
<rect x="22" y="29" width="1" height="1" fill="#3B324A" />
<rect x="23" y="29" width="1" height="1" fill="#3B324A" />
<rect x="24" y="29" width="1" height="1" fill="#3B324A" />
<rect x="25" y="29" width="1" height="1" fill="#3B324A" />
<rect x="26" y="29" width="1" height="1" fill="#3B324A" />
<rect x="27" y="29" width="1" height="1" fill="#3B324A" />
<rect x="28" y="29" width="1" height="1" fill="#377172" />
<rect x="29" y="29" width="1" height="1" fill="#292333" />
<rect x="30" y="29" width="1" height="1" fill="#292333" />
<rect x="31" y="29" width="1" height="1" fill="#292333" />
<rect x="32" y="29" width="1" height="1" fill="#292333" />
<rect x="33" y="29" width="1" height="1" fill="#292333" />
<rect x="34" y="29" width="1" height="1" fill="#292333" />
<rect x="47" y="29" width="1" height="1" fill="#4FA4A5" />
<rect x="17" y="30" width="1" height="1" fill="#3B324A" />
<rect x="18" y="30" width="1" height="1" fill="#3B324A" />
<rect x="19" y="30" width="1" height="1" fill="#3B324A" />
<rect x="20" y="30" width="1" height="1" fill="#3B324A" />
<rect x="21" y="30" width="1" height="1" fill="#3B324A" />
<rect x="22" y="30" width="1" height="1" fill="#3B324A" />
<rect x="23" y="30" width="1" height="1" fill="#3B324A" />
<rect x="24" y="30" width="1" height="1" fill="#3B324A" />
<rect x="25" y="30" width="1" height="1" fill="#3B324A" />
<rect x="26" y="30" width="1" height="1" fill="#4FA4A5" />
<rect x="27" y="30" width="1" height="1" fill="#4FA4A5" />
<rect x="28" y="30" width="1" height="1" fill="#377172" />
<rect x="29" y="30" width="1" height="1" fill="#377172" />
<rect x="30" y="30" width="1" height="1" fill="#292333" />
<rect x="31" y="30" width="1" height="1" fill="#292333" />
<rect x="32" y="30" width="1" height="1" fill="#292333" />
<rect x="33" y="30" width="1" height="1" fill="#292333" />
<rect x="43" y="30" width="1" height="1" fill="#BFBFB6" />
<rect x="46" y="30" width="1" height="1" fill="#4FA4A5" />
<rect x="47" y="30" width="1" height="1" fill="#4FA4A5" />
<rect x="18" y="31" width="1" height="1" fill="#3B324A" />
<rect x="19" y="31" width="1" height="1" fill="#3B324A" />
<rect x="20" y="31" width="1" height="1" fill="#3B324A" />
<rect x="21" y="31" width="1" height="1" fill="#3B324A" />
<rect x="22" y="31" width="1" height="1" fill="#3B324A" />
<rect x="23" y="31" width="1" height="1" fill="#3B324A" />
<rect x="24" y="31" width="1" height="1" fill="#3B324A" />
<rect x="25" y="31" width="1" height="1" fill="#4FA4A5" />
<rect x="26" y="31" width="1" height="1" fill="#4FA4A5" />
<rect x="27" y="31" width="1" height="1" fill="#4FA4A5" />
<rect x="28" y="31" width="1" height="1" fill="#377172" />
<rect x="29" y="31" width="1" height="1" fill="#377172" />
<rect x="30" y="31" width="1" height="1" fill="#377172" />
<rect x="31" y="31" width="1" height="1" fill="#292333" />
<rect x="32" y="31" width="1" height="1" fill="#292333" />
<rect x="42" y="31" width="1" height="1" fill="#BFBFB6" />
<rect x="46" y="31" width="1" height="1" fill="#4FA4A5" />
<rect x="47" y="31" width="1" height="1" fill="#4FA4A5" />
<rect x="19" y="32" width="1" height="1" fill="#3B324A" />
<rect x="20" y="32" width="1" height="1" fill="#3B324A" />
<rect x="21" y="32" width="1" height="1" fill="#3B324A" />
<rect x="22" y="32" width="1" height="1" fill="#3B324A" />
<rect x="23" y="32" width="1" height="1" fill="#4FA4A5" />
<rect x="24" y="32" width="1" height="1" fill="#4FA4A5" />
<rect x="25" y="32" width="1" height="1" fill="#4FA4A5" />
<rect x="26" y="32" width="1" height="1" fill="#4FA4A5" />
<rect x="27" y="32" width="1" height="1" fill="#4FA4A5" />
<rect x="28" y="32" width="1" height="1" fill="#377172" />
<rect x="29" y="32" width="1" height="1" fill="#377172" />
<rect x="30" y="32" width="1" height="1" fill="#377172" />
<rect x="31" y="32" width="1" height="1" fill="#377172" />
<rect x="42" y="32" width="1" height="1" fill="#D9D9CE" />
<rect x="45" y="32" width="1" height="1" fill="#4FA4A5" />
<rect x="46" y="32" width="1" height="1" fill="#4FA4A5" />
<rect x="47" y="32" width="1" height="1" fill="#4FA4A5" />
<rect x="21" y="33" width="1" height="1" fill="#4FA4A5" />
<rect x="22" y="33" width="1" height="1" fill="#4FA4A5" />
<rect x="23" y="33" width="1" height="1" fill="#4FA4A5" />
<rect x="24" y="33" width="1" height="1" fill="#4FA4A5" />
<rect x="25" y="33" width="1" height="1" fill="#4FA4A5" />
<rect x="26" y="33" width="1" height="1" fill="#4FA4A5" />
<rect x="27" y="33" width="1" height="1" fill="#4FA4A5" />
<rect x="28" y="33" width="1" height="1" fill="#377172" />
<rect x="29" y="33" width="1" height="1" fill="#377172" />
<rect x="30" y="33" width="1" height="1" fill="#377172" />
<rect x="31" y="33" width="1" height="1" fill="#377172" />
<rect x="42" y="33" width="1" height="1" fill="#D9D9CE" />
<rect x="45" y="33" width="1" height="1" fill="#4FA4A5" />
<rect x="46" y="33" width="1" height="1" fill="#4FA4A5" />
<rect x="47" y="33" width="1" height="1" fill="#4FA4A5" />
<rect x="23" y="34" width="1" height="1" fill="#4FA4A5" />
<rect x="24" y="34" width="1" height="1" fill="#4FA4A5" />
<rect x="25" y="34" width="1" height="1" fill="#4FA4A5" />
<rect x="26" y="34" width="1" height="1" fill="#4FA4A5" />
<rect x="28" y="34" width="1" height="1" fill="#377172" />
<rect x="29" y="34" width="1" height="1" fill="#377172" />
<rect x="30" y="34" width="1" height="1" fill="#377172" />
<rect x="43" y="34" width="1" height="1" fill="#D9D9CE" />
<rect x="44" y="34" width="1" height="1" fill="#4FA4A5" />
<rect x="45" y="34" width="1" height="1" fill="#4FA4A5" />
<rect x="46" y="34" width="1" height="1" fill="#4FA4A5" />
<rect x="47" y="34" width="1" height="1" fill="#4FA4A5" />
<rect x="23" y="35" width="1" height="1" fill="#3B324A" />
<rect x="24" y="35" width="1" height="1" fill="#3B324A" />
<rect x="25" y="35" width="1" height="1" fill="#3B324A" />
<rect x="28" y="35" width="1" height="1" fill="#292333" />
<rect x="29" y="35" width="1" height="1" fill="#292333" />
<rect x="30" y="35" width="1" height="1" fill="#292333" />
<rect x="44" y="35" width="1" height="1" fill="#4FA4A5" />
<rect x="45" y="35" width="1" height="1" fill="#4FA4A5" />
<rect x="46" y="35" width="1" height="1" fill="#4FA4A5" />
<rect x="47" y="35" width="1" height="1" fill="#4FA4A5" />
<rect x="23" y="36" width="1" height="1" fill="#3B324A" />
<rect x="24" y="36" width="1" height="1" fill="#3B324A" />
<rect x="28" y="36" width="1" height="1" fill="#292333" />
<rect x="29" y="36" width="1" height="1" fill="#292333" />
<rect x="43" y="36" width="1" height="1" fill="#4FA4A5" />
<rect x="44" y="36" width="1" height="1" fill="#4FA4A5" />
<rect x="45" y="36" width="1" height="1" fill="#4FA4A5" />
<rect x="46" y="36" width="1" height="1" fill="#4FA4A5" />
<rect x="47" y="36" width="1" height="1" fill="#4FA4A5" />
<rect x="43" y="37" width="1" height="1" fill="#4FA4A5" />
<rect x="44" y="37" width="1" height="1" fill="#4FA4A5" />
<rect x="45" y="37" width="1" height="1" fill="#4FA4A5" />
<rect x="46" y="37" width="1" height="1" fill="#D9D9CE" />
<rect x="47" y="37" width="1" height="1" fill="#D9D9CE" />
<rect x="42" y="38" width="1" height="1" fill="#4FA4A5" />
<rect x="43" y="38" width="1" height="1" fill="#4FA4A5" />
<rect x="44" y="38" width="1" height="1" fill="#4FA4A5" />
<rect x="45" y="38" width="1" height="1" fill="#4FA4A5" />
<rect x="46" y="38" width="1" height="1" fill="#4FA4A5" />
<rect x="47" y="38" width="1" height="1" fill="#4FA4A5" />
<rect x="42" y="39" width="1" height="1" fill="#4FA4A5" />
<rect x="43" y="39" width="1" height="1" fill="#4FA4A5" />
<rect x="44" y="39" width="1" height="1" fill="#4FA4A5" />
<rect x="45" y="39" width="1" height="1" fill="#4FA4A5" />
<rect x="46" y="39" width="1" height="1" fill="#4FA4A5" />
<rect x="47" y="39" width="1" height="1" fill="#4FA4A5" />
<rect x="24" y="40" width="1" height="1" fill="#000000" opacity="0.313725" />
<rect x="25" y="40" width="1" height="1" fill="#000000" opacity="0.313725" />
<rect x="26" y="40" width="1" height="1" fill="#000000" opacity="0.313725" />
<rect x="27" y="40" width="1" height="1" fill="#000000" opacity="0.313725" />
<rect x="28" y="40" width="1" height="1" fill="#000000" opacity="0.313725" />
<rect x="41" y="40" width="1" height="1" fill="#4FA4A5" />
<rect x="42" y="40" width="1" height="1" fill="#4FA4A5" />
<rect x="43" y="40" width="1" height="1" fill="#4FA4A5" />
<rect x="44" y="40" width="1" height="1" fill="#4FA4A5" />
<rect x="45" y="40" width="1" height="1" fill="#4FA4A5" />
<rect x="46" y="40" width="1" height="1" fill="#4FA4A5" />
<rect x="47" y="40" width="1" height="1" fill="#377172" />
<rect x="24" y="41" width="1" height="1" fill="#000000" opacity="0.313725" />
<rect x="25" y="41" width="1" height="1" fill="#000000" opacity="0.313725" />
<rect x="26" y="41" width="1" height="1" fill="#000000" opacity="0.313725" />
<rect x="27" y="41" width="1" height="1" fill="#000000" opacity="0.313725" />
<rect x="28" y="41" width="1" height="1" fill="#000000" opacity="0.313725" />
<rect x="41" y="41" width="1" height="1" fill="#4FA4A5" />
<rect x="42" y="41" width="1" height="1" fill="#4FA4A5" />
<rect x="43" y="41" width="1" height="1" fill="#4FA4A5" />
<rect x="44" y="41" width="1" height="1" fill="#4FA4A5" />
<rect x="45" y="41" width="1" height="1" fill="#4FA4A5" />
<rect x="46" y="41" width="1" height="1" fill="#4FA4A5" />
<rect x="47" y="41" width="1" height="1" fill="#377172" />
<rect x="24" y="42" width="1" height="1" fill="#000000" opacity="0.313725" />
<rect x="25" y="42" width="1" height="1" fill="#000000" opacity="0.313725" />
<rect x="26" y="42" width="1" height="1" fill="#000000" opacity="0.313725" />
<rect x="27" y="42" width="1" height="1" fill="#000000" opacity="0.313725" />
<rect x="28" y="42" width="1" height="1" fill="#000000" opacity="0.313725" />
<rect x="41" y="42" width="1" height="1" fill="#4FA4A5" />
<rect x="42" y="42" width="1" height="1" fill="#4FA4A5" />
<rect x="43" y="42" width="1" height="1" fill="#4FA4A5" />
<rect x="44" y="42" width="1" height="1" fill="#4FA4A5" />
<rect x="45" y="42" width="1" height="1" fill="#4FA4A5" />
<rect x="46" y="42" width="1" height="1" fill="#377172" />
<rect x="47" y="42" width="1" height="1" fill="#377172" />
<rect x="24" y="43" width="1" height="1" fill="#000000" opacity="0.313725" />
<rect x="25" y="43" width="1" height="1" fill="#000000" opacity="0.313725" />
<rect x="26" y="43" width="1" height="1" fill="#000000" opacity="0.313725" />
<rect x="27" y="43" width="1" height="1" fill="#000000" opacity="0.313725" />
<rect x="28" y="43" width="1" height="1" fill="#000000" opacity="0.313725" />
<rect x="42" y="43" width="1" height="1" fill="#4FA4A5" />
<rect x="43" y="43" width="1" height="1" fill="#4FA4A5" />
<rect x="44" y="43" width="1" height="1" fill="#4FA4A5" />
<rect x="45" y="43" width="1" height="1" fill="#377172" />
<rect x="46" y="43" width="1" height="1" fill="#377172" />
<rect x="47" y="43" width="1" height="1" fill="#377172" />
<rect x="43" y="44" width="1" height="1" fill="#4FA4A5" />
<rect x="44" y="44" width="1" height="1" fill="#4FA4A5" />
<rect x="45" y="44" width="1" height="1" fill="#377172" />
<rect x="46" y="44" width="1" height="1" fill="#377172" />
<rect x="47" y="44" width="1" height="1" fill="#000000" opacity="0.313725" />
<rect x="44" y="45" width="1" height="1" fill="#000000" opacity="0.313725" />
<rect x="45" y="45" width="1" height="1" fill="#000000" opacity="0.313725" />
<rect x="46" y="45" width="1" height="1" fill="#000000" opacity="0.313725" />
<rect x="47" y="45" width="1" height="1" fill="#000000" opacity="0.313725" />
</svg>